<?xml version="1.0" encoding="utf-8"?>
<!-- Generator: Adobe Illustrator 22.1.0, SVG Export Plug-In . SVG Version: 6.00 Build 0)  -->
<svg version="1.1" id="Ebene_1" xmlns="http://www.w3.org/2000/svg" xmlns:xlink="http://www.w3.org/1999/xlink" x="0px" y="0px"
	 viewBox="0 0 595.3 841.9" style="enable-background:new 0 0 595.3 841.9;" xml:space="preserve">
<style type="text/css">
	.st0{fill:url(#SVGID_1_);}
	.st1{fill:#FFFFFF;}
	.st2{fill-rule:evenodd;clip-rule:evenodd;fill:#FFFFFF;}
</style>
<radialGradient id="SVGID_1_" cx="37.6681" cy="141.7826" r="363.9778" gradientTransform="matrix(1.0656 0 0 1.0656 -3.4083 10.4753)" gradientUnits="userSpaceOnUse">
	<stop  offset="0" style="stop-color:#4A668B"/>
	<stop  offset="0.9904" style="stop-color:#003C66"/>
</radialGradient>
<polygon class="st0" points="35.4,158.7 559.8,158.7 559.8,683.1 35.4,683.1 35.4,158.7 "/>
<g>
	<polygon class="st1" points="141.1,469.2 159.7,469.2 159.7,384.6 141.1,384.6 141.1,469.2 	"/>
	<polygon class="st1" points="176.1,469.2 235.9,469.2 235.9,453.6 194.7,453.6 194.7,384.6 176.1,384.6 176.1,469.2 	"/>
	<polygon class="st1" points="250.8,469.2 269.4,469.2 269.4,384.6 250.8,384.6 250.8,469.2 	"/>
	<path class="st2" d="M279.8,469.2h18.8l6.6-18.8h31.6l6.4,18.8h19.3l-31.6-84.6h-19.1L279.8,469.2L279.8,469.2z M321.1,405.5h0.2
		l10.7,31h-21.9L321.1,405.5L321.1,405.5z"/>
	<path class="st1" d="M371.6,441.2c-0.2,20.9,17.3,30.1,36,30.1c23,0,35.2-11.6,35.2-27.1c0-19.2-19-23.1-25.1-24.6
		c-21.2-5.5-25.2-6.3-25.2-12.8c0-7.1,6.9-9.6,12.8-9.6c8.9,0,16.1,2.6,16.7,12.8h18c0-19.6-16.2-27.3-33.9-27.3
		c-15.3,0-31.6,8.3-31.6,25.6c0,15.9,12.7,20.7,25.2,24.1c12.4,3.3,25.1,4.9,25.1,14c0,8.6-10,10.5-16.5,10.5
		c-10,0-18.7-4.4-18.7-15.6H371.6L371.6,441.2z"/>
	<path class="st2" d="M444,396.8c0,8.4,6.6,13.8,14.1,13.8c7.4,0,14.1-5.4,14.1-13.8c0-8.3-6.6-13.7-14.1-13.7
		C450.6,383.1,444,388.4,444,396.8L444,396.8z M447.7,396.8c0-6.2,4.6-10.8,10.3-10.8c5.7,0,10.3,4.5,10.3,10.8
		c0,6.3-4.7,10.8-10.3,10.8C452.3,407.6,447.7,403,447.7,396.8L447.7,396.8z M452.6,404.4h3v-6.6h1.9l3.7,6.6h3.2l-4.1-6.7
		c2.3-0.2,4-1.3,4-4.1c0-3.3-2.2-4.5-6-4.5h-5.8V404.4L452.6,404.4z M455.7,391.4h2.6c1.4,0,3.2,0.3,3.2,1.9c0,1.9-1.3,2.1-3,2.1
		h-2.7V391.4L455.7,391.4z"/>
</g>
</svg>
