<?xml version="1.0" encoding="UTF-8"?>
<svg id="Layer_1" xmlns="http://www.w3.org/2000/svg" version="1.1" xmlns:xlink="http://www.w3.org/1999/xlink" viewBox="0 0 320 320">
  <!-- Generator: Adobe Illustrator 29.8.2, SVG Export Plug-In . SVG Version: 2.1.1 Build 3)  -->
  <defs>
    <style>
      .st0 {
        fill: none;
      }

      .st1 {
        clip-path: url(#clippath-2);
      }

      .st2 {
        fill: #4c6586;
      }
    </style>
    <clipPath id="clippath-2">
      <rect class="st0" x="20" y="20" width="280" height="280"/>
    </clipPath>
  </defs>
  <g class="st1">
    <path class="st2" d="M131,155.5c8.3,0,15-6.7,15-15s-6.7-15-15-15-15,6.7-15,15,6.7,15,15,15M234,155.5c8.3,0,15-6.7,15-15s-6.7-15-15-15-15,6.7-15,15,6.7,15,15,15M257,128c0,25.1-20.4,45.5-45.5,45.5s-45.5-20.4-45.5-45.5,20.4-45.5,45.5-45.5,45.5,20.4,45.5,45.5M160,223c15.5,0,28,5.2,28,11.8s-12.5,11.8-28,11.8-28-5.3-28-11.8,12.5-11.8,28-11.8M154,128c0,25.1-20.4,45.5-45.5,45.5s-45.5-20.4-45.5-45.5,20.4-45.5,45.5-45.5,45.5,20.4,45.5,45.5M300,160c0-77.3-62.7-140-140-140S20,82.7,20,160s62.7,140,140,140,140-62.7,140-140"/>
  </g>
</svg>