<?xml version="1.0" encoding="UTF-8"?>
<svg id="Layer_1" xmlns="http://www.w3.org/2000/svg" version="1.1" xmlns:xlink="http://www.w3.org/1999/xlink" viewBox="0 0 320 320">
  <!-- Generator: Adobe Illustrator 30.2.1, SVG Export Plug-In . SVG Version: 2.1.1 Build 1)  -->
  <defs>
    <style>
      .st0 {
        fill: none;
      }

      .st1 {
        fill: #4c6586;
      }

      .st2 {
        clip-path: url(#clippath);
      }
    </style>
    <clipPath id="clippath">
      <rect class="st0" x="50" y="80" width="220" height="180"/>
    </clipPath>
  </defs>
  <g class="st2">
    <path class="st1" d="M99.3,208.7c-2.7,3.2-2.3,7.9.9,10.6,3.2,2.7,7.9,2.3,10.6-.9l41.8-49.4v83.5c0,4.1,3.4,7.5,7.5,7.5s7.5-3.4,7.5-7.5v-83.5l41.8,49.4c1.5,1.8,3.6,2.7,5.7,2.7s3.4-.6,4.8-1.8c3.2-2.7,3.6-7.4.9-10.6l-55-65c-1.4-1.7-3.5-2.7-5.7-2.7s-4.3,1-5.7,2.7l-55,65ZM270,115v-25c0-5.5-4.5-10-10-10H60c-5.5,0-10,4.5-10,10v25c0,5.5,4.5,10,10,10h200c5.5,0,10-4.5,10-10"/>
  </g>
  <rect class="st0" width="320" height="320"/>
</svg>