<?xml version="1.0" encoding="UTF-8"?>
<svg id="Layer_1" xmlns="http://www.w3.org/2000/svg" version="1.1" xmlns:xlink="http://www.w3.org/1999/xlink" viewBox="0 0 320 320">
  <!-- Generator: Adobe Illustrator 30.0.0, SVG Export Plug-In . SVG Version: 2.1.1 Build 123)  -->
  <defs>
    <style>
      .st0 {
        fill: none;
      }

      .st1 {
        fill: #4c6586;
      }

      .st2 {
        clip-path: url(#clippath);
      }
    </style>
    <clipPath id="clippath">
      <rect class="st0" x="32.5" y="95.5" width="255" height="184.5"/>
    </clipPath>
  </defs>
  <g class="st2">
    <path class="st1" d="M106,189.6h44.2v-10.5h-44.2v10.5ZM212.5,268.7H43.8v-95l56.8,42.8c1,.7,2.2,1.1,3.4,1.1h48.5c1.2,0,2.4-.4,3.4-1.1l56.8-42.8v95ZM162.8,165.8v31.4l-12.3,9.3h-44.7l-12.3-9.3v-31.4h69.4ZM209.4,162.1l-35.3,26.6v-34.1h-91.9v34.1l-35.3-26.6,81.3-54.2,81.3,54.2ZM223.8,270.3v-107.8c0-.3,0-.5,0-.8.2-2-.7-4.1-2.4-5.3l-90-60c-1.9-1.3-4.3-1.3-6.2,0l-90,60c-1.8,1.2-2.7,3.3-2.4,5.3,0,.3,0,.5,0,.8v107.8c0,4.7,3.4,9.7,9.8,9.7h171.7c4.7,0,9.8-3.4,9.8-9.7M287.5,150h-40v130h40v-130ZM287.5,140l-6.5-15.1-9.6-22.4c-2.2-5.1-5.7-5.1-7.9,0l-12.1,28.3s0,0,0,0l-3.9,9.2h40Z"/>
  </g>
  <rect class="st0" width="320" height="320"/>
</svg>