<?xml version="1.0" encoding="UTF-8"?>
<svg id="Layer_1" xmlns="http://www.w3.org/2000/svg" version="1.1" xmlns:xlink="http://www.w3.org/1999/xlink" viewBox="0 0 320 320">
  <!-- Generator: Adobe Illustrator 30.0.0, SVG Export Plug-In . SVG Version: 2.1.1 Build 123)  -->
  <defs>
    <style>
      .st0 {
        fill: none;
      }

      .st1 {
        fill: #4c6586;
      }

      .st2 {
        clip-path: url(#clippath);
      }
    </style>
    <clipPath id="clippath">
      <rect class="st0" x="32.5" y="34" width="255" height="246"/>
    </clipPath>
  </defs>
  <g class="st2">
    <path class="st1" d="M130.5,159.5h59v-14h-59v14ZM272.5,265H47.5v-126.6l75.7,57c1.3,1,2.9,1.5,4.5,1.5h64.6c1.6,0,3.2-.5,4.5-1.5l75.7-57v126.6ZM206.2,127.7v41.8l-16.4,12.4h-59.6l-16.4-12.4v-41.8h92.5ZM268.3,122.7l-47.1,35.5v-45.5h-122.5v45.5l-47.1-35.5,108.3-72.2,108.3,72.2ZM287.5,123.3c0-.4,0-.7,0-1.1.3-2.7-.9-5.4-3.3-7l-120-80c-2.5-1.7-5.8-1.7-8.3,0L35.8,115.3c-2.4,1.6-3.5,4.3-3.3,7,0,.3,0,.7,0,1.1v143.7c0,6.3,4.6,13,13.1,13h228.9c6.3,0,13.1-4.5,13.1-13V123.3Z"/>
  </g>
  <rect class="st0" width="320" height="320"/>
</svg>