<?xml version="1.0" encoding="UTF-8"?>
<svg id="Layer_1" xmlns="http://www.w3.org/2000/svg" version="1.1" viewBox="0 0 320 320">
  <!-- Generator: Adobe Illustrator 29.8.2, SVG Export Plug-In . SVG Version: 2.1.1 Build 3)  -->
  <defs>
    <style>
      .st0 {
        fill: #4c6586;
      }
    </style>
  </defs>
  <path class="st0" d="M230.6,72.3h-74.5s-42.7.5-48.3,40.9h19.7c7.6-20.8,32-21.1,32-21.1h65.1c34.4,0,34.4,34.4,34.4,34.4v22c0,34.4-34.4,34.4-34.4,34.4h-65.1c-34.4,0-34.4-34.4-34.4-34.4v-6.3h-18.4v11s0,49.4,49.4,49.4h74.5s49.4,0,49.4-49.4v-31.6s0-49.3-49.4-49.3Z"/>
  <path class="st0" d="M212.2,207.3c-5.9,40-48.3,40.5-48.3,40.5h-74.5c-49.4,0-49.4-49.4-49.4-49.4v-31.6c0-49.4,49.4-49.4,49.4-49.4h70.6v-21.1l25.4,25,7.9,7.8-14.3,14.1-19,18.7v-24.8c-.7,0-1.3,0-2,0h-65.2s-34.4,0-34.4,34.4v22s0,34.4,34.4,34.4h65.2s24.1-.2,31.9-20.6h22.3Z"/>
</svg>