<?xml version="1.0" encoding="UTF-8"?>
<svg id="Layer_1" xmlns="http://www.w3.org/2000/svg" version="1.1" xmlns:xlink="http://www.w3.org/1999/xlink" viewBox="0 0 320 320">
  <!-- Generator: Adobe Illustrator 30.2.1, SVG Export Plug-In . SVG Version: 2.1.1 Build 1)  -->
  <defs>
    <style>
      .st0 {
        fill: none;
      }

      .st1 {
        fill: #4c6586;
      }

      .st2 {
        clip-path: url(#clippath);
      }
    </style>
    <clipPath id="clippath">
      <rect class="st0" x="80" y="80" width="160" height="170"/>
    </clipPath>
  </defs>
  <g class="st2">
    <path class="st1" d="M214,105c0,4.1-3.3,7.5-7.5,7.5h-65c-4.2,0-7.5-3.4-7.5-7.5s3.3-7.5,7.5-7.5h65c4.2,0,7.5,3.4,7.5,7.5M118.3,105c0,5.5-4.5,10-10,10s-10-4.5-10-10,4.5-10,10-10,10,4.5,10,10M240,120v-30c0-5.5-4.5-10-10-10H90c-5.5,0-10,4.5-10,10v30c0,5.5,4.5,10,10,10h140c5.5,0,10-4.5,10-10M214,165c0,4.1-3.3,7.5-7.5,7.5h-65c-4.2,0-7.5-3.4-7.5-7.5s3.3-7.5,7.5-7.5h65c4.2,0,7.5,3.4,7.5,7.5M118.3,165c0,5.5-4.5,10-10,10s-10-4.5-10-10,4.5-10,10-10,10,4.5,10,10M240,180v-30c0-5.5-4.5-10-10-10H90c-5.5,0-10,4.5-10,10v30c0,5.5,4.5,10,10,10h140c5.5,0,10-4.5,10-10M214,225c0,4.1-3.3,7.5-7.5,7.5h-65c-4.2,0-7.5-3.4-7.5-7.5s3.3-7.5,7.5-7.5h65c4.2,0,7.5,3.4,7.5,7.5M118.3,225c0,5.5-4.5,10-10,10s-10-4.5-10-10,4.5-10,10-10,10,4.5,10,10M240,240v-30c0-5.5-4.5-10-10-10H90c-5.5,0-10,4.5-10,10v30c0,5.5,4.5,10,10,10h140c5.5,0,10-4.5,10-10"/>
  </g>
  <rect class="st0" width="320" height="320"/>
</svg>