<?xml version="1.0" encoding="UTF-8"?>
<svg id="Layer_1" xmlns="http://www.w3.org/2000/svg" version="1.1" xmlns:xlink="http://www.w3.org/1999/xlink" viewBox="0 0 320 320">
  <!-- Generator: Adobe Illustrator 30.0.0, SVG Export Plug-In . SVG Version: 2.1.1 Build 123)  -->
  <defs>
    <style>
      .st0 {
        fill: none;
      }

      .st1 {
        fill: #4c6586;
      }

      .st2 {
        clip-path: url(#clippath);
      }
    </style>
    <clipPath id="clippath">
      <rect class="st0" x="100" y="53.2" width="120" height="213.5"/>
    </clipPath>
  </defs>
  <g class="st2">
    <path class="st1" d="M145,194.6,174.5,196.6s0,0,0,0h0ZM159.6,204.2h0s0,0,0,0M159.4,251.7h0s0,0,0,0M160.6,251.7s0,0,0,0h0ZM160,266.8c-2.9,0-5.7-.7-8.1-2l-43.8-25c-4.7-2.7-8.1-8.6-8.1-14v-117.5c0-4.1,3.4-7.5,7.5-7.5s7.5,3.4,7.5,7.5v117.4c0,.3.4.9.7,1.1l43.7,24.9c.3.1,1,.1,1.4,0l43.7-24.9c.2-.2.6-.8.7-1.1V68.2h-60v126.4c0,.4.4,1,.7,1.3l13.8,8.3c.3.1,1,.1,1.3,0l13.6-7.6c.2-.2.5-.7.6-1v-87.4c0-4.1,3.4-7.5,7.5-7.5s7.5,3.4,7.5,7.5v87.5c0,5.5-3.5,11.4-8.3,14l-13.7,7.6c-4.8,2.6-11.6,2.5-16.2-.3l-13.9-8.3c-4.6-2.8-7.9-8.7-7.9-14V65.7c0-6.9,5.6-12.5,12.5-12.5h65c6.9,0,12.5,5.6,12.5,12.5v160c0,5.4-3.4,11.3-8.1,14l-43.8,25c-2.3,1.3-5.2,2-8.1,2"/>
  </g>
  <rect class="st0" width="320" height="320"/>
</svg>