<?xml version="1.0" encoding="UTF-8"?>
<svg id="Layer_1" xmlns="http://www.w3.org/2000/svg" version="1.1" xmlns:xlink="http://www.w3.org/1999/xlink" viewBox="0 0 320 320">
  <!-- Generator: Adobe Illustrator 30.2.1, SVG Export Plug-In . SVG Version: 2.1.1 Build 1)  -->
  <defs>
    <style>
      .st0 {
        fill: none;
      }

      .st1 {
        fill: #4c6586;
      }

      .st2 {
        clip-path: url(#clippath);
      }
    </style>
    <clipPath id="clippath">
      <rect class="st0" x="42.5" y="40" width="235" height="220"/>
    </clipPath>
  </defs>
  <g class="st2">
    <path class="st1" d="M262.5,240.1l-40.5-11.6v-118.8c6.5,1.9,13,3.7,19.5,5.6,7,2,14,4,21,6v118.8ZM208,116.4v112.1l-41,11.7v-118.8l7.2-2.1c8.2,11.8,15.9,20.8,15.9,20.8,0,0,9-10.6,17.9-23.8M202.4,73.4c0,6.8-5.5,12.3-12.3,12.3s-12.3-5.5-12.3-12.3,5.5-12.3,12.3-12.3,12.3,5.5,12.3,12.3M153,240.2l-41-11.7v-118.8l41,11.7v118.8ZM98,228.5l-40.5,11.6v-118.8l21-6c6.5-1.9,13-3.7,19.5-5.6v118.8ZM277.5,260V110l-5.4-1.6c-8.8-2.5-17.6-5-26.4-7.5-6.3-1.8-17.7-5-24.7-7,2.6-5.9,4.3-11.4,4.3-16,0-20.9-15.7-37.9-35.2-37.9s-35.2,17-35.2,37.9,4.8,18.2,10.8,28.3l-5.7,1.6h0l-55-15.7s-21.1,6-30.7,8.8c-8.8,2.5-17.6,5-26.4,7.5l-5.4,1.6v150l62.5-17.9h0s55,15.7,55,15.7l55-15.7h0s62.5,17.9,62.5,17.9Z"/>
  </g>
  <rect class="st0" width="320" height="320"/>
</svg>