<?xml version="1.0" encoding="UTF-8"?>
<svg id="Layer_1" xmlns="http://www.w3.org/2000/svg" version="1.1" xmlns:xlink="http://www.w3.org/1999/xlink" viewBox="0 0 320 320">
  <!-- Generator: Adobe Illustrator 30.2.1, SVG Export Plug-In . SVG Version: 2.1.1 Build 1)  -->
  <defs>
    <style>
      .st0 {
        fill: none;
      }

      .st1 {
        fill: #4c6586;
      }

      .st2 {
        clip-path: url(#clippath);
      }
    </style>
    <clipPath id="clippath">
      <rect class="st0" x="55" y="55" width="210" height="210"/>
    </clipPath>
  </defs>
  <g class="st2">
    <path class="st1" d="M226.7,163.4c1.9-3.7.4-8.3-3.4-10.1l-35.8-17.9v-35.3c0-4.2-3.4-7.5-7.5-7.5s-7.5,3.4-7.5,7.5v40c0,2.9,1.6,5.5,4.2,6.7l40,20c1.1.5,2.2.8,3.4.8,2.8,0,5.4-1.5,6.8-4.2M250,140c0,38.7-31.3,70-70,70s-17.6-1.7-25.4-4.8v-5.7c-.1-1.2.5-2.8,1.4-3.6l11.3-10.2c.9-.8,1.1-2.3.5-3.3l-8.6-14.9c-.6-1-2-1.6-3.1-1.2l-14.4,4.7c-1.1.4-2.9.1-3.8-.5l-9.5-5.5c-1.1-.5-2.2-1.9-2.4-3.1l-3.2-14.9c-.2-1.2-1.4-2.1-2.6-2.1h-10c-.1-1.7-.2-3.3-.2-5,0-38.7,31.3-70,70-70s70,31.3,70,70M111.6,178c14.9,0,27,12.1,27,27s-12.1,27-27,27-27-12.1-27-27,12.1-27,27-27M265,140c0-46.9-38.1-85-85-85s-85,38.1-85,85,.9,14,2.5,20.7l-.3,1.3c-.2,1.2-1.3,2.5-2.4,3.1l-9.5,5.5c-1,.7-2.7.9-3.8.5l-14.4-4.7c-1.1-.4-2.5.1-3.1,1.2l-8.6,14.9c-.6,1-.3,2.5.5,3.3l11.3,10.2c.9.8,1.6,2.4,1.5,3.6v11c.1,1.2-.5,2.8-1.4,3.6l-11.3,10.2c-.9.8-1.1,2.3-.5,3.3l8.6,14.9c.6,1,2,1.6,3.1,1.2l14.4-4.7c1.1-.4,2.9-.1,3.8.5l9.5,5.5c1.1.5,2.2,1.9,2.4,3.1l3.2,14.9c.2,1.2,1.4,2.1,2.6,2.1h17.2c1.2,0,2.3-1,2.6-2.1l3.2-14.9c.2-1.2,1.3-2.5,2.4-3.1l9.5-5.5c1-.7,2.7-.9,3.8-.5l14.5,4.7c1.1.4,2.5-.1,3.1-1.2l8.6-14.9c.6-1,.3-2.5-.5-3.3l-.3-.3c4.2.7,8.6,1,13,1,46.9,0,85-38.1,85-85"/>
  </g>
  <rect class="st0" width="320" height="320"/>
</svg>